<svg width="33" height="32" viewBox="0 0 33 32" fill="none" xmlns="http://www.w3.org/2000/svg">
<path d="M13.9993 29.3332C13.9993 29.9962 14.2627 30.6321 14.7316 31.1009C15.2004 31.5698 15.8363 31.8332 16.4993 31.8332C17.1624 31.8332 17.7983 31.5698 18.2671 31.1009C18.736 30.6321 18.9993 29.9962 18.9993 29.3332V18.4998H29.8327C30.4957 18.4998 31.1316 18.2364 31.6004 17.7676C32.0693 17.2988 32.3327 16.6629 32.3327 15.9998C32.3327 15.3368 32.0693 14.7009 31.6004 14.2321C31.1316 13.7632 30.4957 13.4998 29.8327 13.4998H18.9993V2.6665C18.9993 2.00346 18.736 1.36758 18.2671 0.898737C17.7983 0.429896 17.1624 0.166504 16.4993 0.166504C15.8363 0.166504 15.2004 0.429896 14.7316 0.898737C14.2627 1.36758 13.9993 2.00346 13.9993 2.6665V13.4998H3.16602C2.50297 13.4998 1.86709 13.7632 1.39825 14.2321C0.929408 14.7009 0.666016 15.3368 0.666016 15.9998C0.666016 16.6629 0.929408 17.2988 1.39825 17.7676C1.86709 18.2364 2.50297 18.4998 3.16602 18.4998H13.9993V29.3332Z" fill="#111344"/>
</svg>
