<svg width="32" height="36" viewBox="0 0 32 36" fill="none" xmlns="http://www.w3.org/2000/svg">
<path d="M30.3824 24.6648C30.2527 24.5086 30.1253 24.3523 30.0003 24.2016C28.2816 22.1227 27.2418 20.868 27.2418 14.9828C27.2418 11.9359 26.5128 9.43594 25.0761 7.56094C24.0168 6.17578 22.5847 5.125 20.6972 4.34844C20.6729 4.33493 20.6512 4.3172 20.6332 4.29609C19.9543 2.02266 18.0964 0.5 16.0011 0.5C13.9058 0.5 12.0488 2.02266 11.3699 4.29375C11.3518 4.31408 11.3304 4.33125 11.3066 4.34453C6.90191 6.15781 4.76128 9.63672 4.76128 14.9805C4.76128 20.868 3.723 22.1227 2.00269 24.1992C1.87769 24.35 1.75035 24.5031 1.62066 24.6625C1.28566 25.0665 1.07341 25.558 1.00903 26.0789C0.944648 26.5997 1.03083 27.1281 1.25738 27.6016C1.73941 28.6172 2.76675 29.2477 3.93941 29.2477H28.0714C29.2386 29.2477 30.2589 28.618 30.7425 27.607C30.9701 27.1335 31.0571 26.6047 30.9932 26.0832C30.9294 25.5617 30.7174 25.0695 30.3824 24.6648ZM16.0011 35.5C17.1301 35.4991 18.2377 35.1926 19.2066 34.6132C20.1754 34.0337 20.9694 33.2028 21.5043 32.2086C21.5294 32.1609 21.5419 32.1076 21.5404 32.0537C21.5389 31.9998 21.5234 31.9473 21.4956 31.9011C21.4678 31.855 21.4285 31.8168 21.3815 31.7903C21.3346 31.7638 21.2816 31.7499 21.2277 31.75H10.7761C10.7222 31.7498 10.6691 31.7636 10.622 31.79C10.575 31.8164 10.5356 31.8546 10.5076 31.9008C10.4797 31.947 10.4642 31.9996 10.4627 32.0535C10.4611 32.1075 10.4736 32.1609 10.4988 32.2086C11.0336 33.2027 11.8274 34.0335 12.7961 34.613C13.7648 35.1924 14.8723 35.4989 16.0011 35.5Z" fill="#F6F6F6"/>
</svg>
