<svg width="32" height="36" viewBox="0 0 32 36" fill="none" xmlns="http://www.w3.org/2000/svg">
<path d="M30.3812 24.6648C30.2516 24.5086 30.1242 24.3523 29.9992 24.2016C28.2805 22.1227 27.2406 20.868 27.2406 14.9828C27.2406 11.9359 26.5117 9.43594 25.075 7.56094C24.0156 6.17578 22.5836 5.125 20.6961 4.34844C20.6718 4.33493 20.6501 4.3172 20.632 4.29609C19.9531 2.02266 18.0953 0.5 16 0.5C13.9047 0.5 12.0477 2.02266 11.3687 4.29375C11.3506 4.31408 11.3292 4.33125 11.3055 4.34453C6.90078 6.15781 4.76015 9.63672 4.76015 14.9805C4.76015 20.868 3.72187 22.1227 2.00156 24.1992C1.87656 24.35 1.74922 24.5031 1.61953 24.6625C1.28453 25.0665 1.07228 25.558 1.0079 26.0789C0.943519 26.5997 1.0297 27.1281 1.25625 27.6016C1.73828 28.6172 2.76562 29.2477 3.93828 29.2477H28.0703C29.2375 29.2477 30.2578 28.618 30.7414 27.607C30.9689 27.1335 31.0559 26.6047 30.9921 26.0832C30.9283 25.5617 30.7163 25.0695 30.3812 24.6648ZM16 35.5C17.1289 35.4991 18.2366 35.1926 19.2054 34.6132C20.1743 34.0337 20.9683 33.2028 21.5031 32.2086C21.5283 32.1609 21.5408 32.1076 21.5393 32.0537C21.5377 31.9998 21.5223 31.9473 21.4945 31.9011C21.4666 31.855 21.4273 31.8168 21.3804 31.7903C21.3335 31.7638 21.2805 31.7499 21.2266 31.75H10.775C10.721 31.7498 10.6679 31.7636 10.6209 31.79C10.5738 31.8164 10.5344 31.8546 10.5065 31.9008C10.4786 31.947 10.4631 31.9996 10.4615 32.0535C10.46 32.1075 10.4724 32.1609 10.4977 32.2086C11.0324 33.2027 11.8263 34.0335 12.795 34.613C13.7637 35.1924 14.8712 35.4989 16 35.5Z" fill="#434343"/>
</svg>
