<svg width="24" height="29" viewBox="0 0 24 29" fill="none" xmlns="http://www.w3.org/2000/svg">
<path fill-rule="evenodd" clip-rule="evenodd" d="M18 4.4706V4.77326C19.732 4.93165 21.4569 5.15938 23.1707 5.45593C23.3001 5.47834 23.4238 5.52602 23.5348 5.59625C23.6457 5.66647 23.7418 5.75786 23.8174 5.86521C23.8931 5.97255 23.9468 6.09375 23.9757 6.22187C24.0045 6.34999 24.0078 6.48253 23.9853 6.61193C23.9629 6.74133 23.9153 6.86504 23.845 6.97601C23.7748 7.08698 23.6834 7.18303 23.5761 7.25868C23.4687 7.33433 23.3475 7.38809 23.2194 7.4169C23.0913 7.44572 22.9587 7.44901 22.8293 7.4266L22.5507 7.37993L21.2107 24.8066C21.1334 25.8114 20.6798 26.75 19.9404 27.4347C19.201 28.1194 18.2304 28.4999 17.2227 28.4999H6.77868C5.77094 28.4999 4.80035 28.1194 4.06098 27.4347C3.32161 26.75 2.86794 25.8114 2.79068 24.8066L1.44934 7.37993L1.17068 7.4266C1.04128 7.44901 0.908737 7.44572 0.780614 7.4169C0.652491 7.38809 0.531297 7.33433 0.423952 7.25868C0.20716 7.1059 0.059939 6.87326 0.0146754 6.61193C-0.0305883 6.3506 0.0298136 6.082 0.182593 5.86521C0.335373 5.64842 0.568016 5.50119 0.829342 5.45593C2.54303 5.15903 4.26799 4.93129 6.00001 4.77326V4.4706C6.00001 2.38526 7.61734 0.603931 9.75468 0.535931C11.2516 0.488023 12.7497 0.488023 14.2467 0.535931C16.384 0.603931 18 2.38526 18 4.4706ZM9.81868 2.5346C11.273 2.48809 12.7284 2.48809 14.1827 2.5346C15.1867 2.5666 16 3.41193 16 4.4706V4.62126C13.3358 4.45946 10.6642 4.45946 8.00001 4.62126V4.4706C8.00001 3.41193 8.81201 2.5666 9.81868 2.5346ZM9.34534 10.4613C9.34027 10.3299 9.30937 10.2009 9.25443 10.0815C9.19948 9.96214 9.12156 9.85475 9.02511 9.76548C8.92866 9.67621 8.81557 9.60682 8.6923 9.56125C8.56903 9.51569 8.438 9.49485 8.30668 9.49993C8.17535 9.50501 8.04632 9.5359 7.92694 9.59085C7.80755 9.64579 7.70016 9.72372 7.6109 9.82017C7.52163 9.91661 7.45223 10.0297 7.40667 10.153C7.3611 10.2762 7.34027 10.4073 7.34534 10.5386L7.80801 22.5386C7.81826 22.8036 7.93339 23.0537 8.12805 23.2339C8.22444 23.3231 8.33745 23.3925 8.46064 23.438C8.58383 23.4835 8.71478 23.5043 8.84601 23.4993C8.97724 23.4942 9.10619 23.4633 9.2255 23.4084C9.3448 23.3535 9.45212 23.2756 9.54132 23.1792C9.63053 23.0828 9.69987 22.9698 9.7454 22.8466C9.79093 22.7234 9.81175 22.5925 9.80668 22.4613L9.34534 10.4613ZM16.652 10.5386C16.6618 10.4048 16.6445 10.2703 16.6012 10.1433C16.558 10.0162 16.4896 9.89923 16.4001 9.79919C16.3107 9.69915 16.202 9.61814 16.0806 9.56098C15.9591 9.50383 15.8275 9.47169 15.6934 9.4665C15.5593 9.46131 15.4255 9.48316 15.3 9.53076C15.1745 9.57836 15.0599 9.65072 14.963 9.74354C14.8661 9.83637 14.7888 9.94775 14.7359 10.0711C14.6829 10.1944 14.6553 10.3271 14.6547 10.4613L14.192 22.4613C14.1818 22.7265 14.2773 22.9849 14.4576 23.1797C14.6378 23.3745 14.8881 23.4897 15.1533 23.4999C15.4186 23.5102 15.677 23.4147 15.8718 23.2344C16.0666 23.0541 16.1818 22.8038 16.192 22.5386L16.652 10.5386Z" fill="#F6F6F6"/>
</svg>
