<svg width="24" height="25" viewBox="0 0 24 25" fill="none" xmlns="http://www.w3.org/2000/svg">
<path d="M20.7087 19.7962C20.8954 19.9837 21.0002 20.2374 21.0002 20.5019C21.0002 20.7664 20.8954 21.0201 20.7087 21.2075C20.5725 21.3413 17.3525 24.5 12 24.5C7.32625 24.5 3.93375 21.7 2 19.5187V22.5C2 22.7652 1.89464 23.0196 1.70711 23.2071C1.51957 23.3946 1.26522 23.5 1 23.5C0.734784 23.5 0.48043 23.3946 0.292893 23.2071C0.105357 23.0196 0 22.7652 0 22.5V16.5C0 16.2348 0.105357 15.9804 0.292893 15.7929C0.48043 15.6054 0.734784 15.5 1 15.5H7C7.26522 15.5 7.51957 15.6054 7.70711 15.7929C7.89464 15.9804 8 16.2348 8 16.5C8 16.7652 7.89464 17.0196 7.70711 17.2071C7.51957 17.3946 7.26522 17.5 7 17.5H2.93C4.47 19.4188 7.625 22.5 12 22.5C16.5 22.5 19.2675 19.8175 19.295 19.79C19.4833 19.6034 19.7381 19.4993 20.0032 19.5005C20.2683 19.5016 20.5221 19.608 20.7087 19.7962ZM23 1.5C22.7348 1.5 22.4804 1.60536 22.2929 1.79289C22.1054 1.98043 22 2.23478 22 2.5V5.48125C20.0662 3.3 16.6737 0.5 12 0.5C6.6475 0.5 3.4275 3.65875 3.2925 3.7925C3.10453 3.97981 2.99866 4.23412 2.99819 4.49948C2.99773 4.76485 3.10269 5.01953 3.29 5.2075C3.47731 5.39547 3.73162 5.50134 3.99698 5.50181C4.26235 5.50227 4.51703 5.39731 4.705 5.21C4.7325 5.1825 7.5 2.5 12 2.5C16.375 2.5 19.53 5.58125 21.07 7.5H17C16.7348 7.5 16.4804 7.60536 16.2929 7.79289C16.1054 7.98043 16 8.23478 16 8.5C16 8.76522 16.1054 9.01957 16.2929 9.20711C16.4804 9.39464 16.7348 9.5 17 9.5H23C23.2652 9.5 23.5196 9.39464 23.7071 9.20711C23.8946 9.01957 24 8.76522 24 8.5V2.5C24 2.23478 23.8946 1.98043 23.7071 1.79289C23.5196 1.60536 23.2652 1.5 23 1.5Z" fill="#111344"/>
</svg>
