<svg width="28" height="28" viewBox="0 0 28 28" fill="none" xmlns="http://www.w3.org/2000/svg">
<path d="M10.5933 8.35844C10.6716 8.20156 10.7954 8.07186 10.9484 7.98615C11.1014 7.90044 11.2766 7.86268 11.4513 7.87777C11.626 7.89286 11.7922 7.9601 11.9282 8.07077C12.0642 8.18145 12.1639 8.33044 12.2142 8.49844L14.2048 15.1353L15.8454 11.8584C15.9181 11.7131 16.0298 11.5909 16.1681 11.5055C16.3063 11.4201 16.4655 11.3748 16.628 11.3748C16.7905 11.3748 16.9498 11.4201 17.088 11.5055C17.2262 11.5909 17.3379 11.7131 17.4106 11.8584L18.9167 14.875H24.2083C24.9961 13.2508 25.3958 11.4657 25.3758 9.66055C25.3414 6.26391 22.6163 3.5 19.3012 3.5C16.6712 3.5 14.9262 5.11547 14.0008 6.28906C13.0777 5.11383 11.3304 3.5 8.70053 3.5C5.38537 3.5 2.66029 6.26391 2.62584 9.66055C2.6117 10.8335 2.77638 12.0017 3.1142 13.125H8.20998L10.5933 8.35844Z" fill="#F07A24"/>
<path d="M17.5924 16.1416L16.625 14.2068L14.7826 17.8916C14.7099 18.0369 14.5982 18.1591 14.4599 18.2445C14.3217 18.3299 14.1625 18.3751 14 18.3751C13.9756 18.3751 13.9504 18.374 13.9245 18.3718C13.7494 18.3572 13.5827 18.2903 13.4461 18.1797C13.3096 18.0691 13.2095 17.9199 13.1589 17.7516L11.1683 11.1147L9.52766 14.3916C9.45533 14.5362 9.34438 14.6579 9.20711 14.7432C9.06985 14.8285 8.91163 14.8742 8.75 14.8751H3.79258C4.30299 15.9429 4.9824 16.994 5.83078 18.0283C6.85727 19.2796 8.71828 21.2801 13.0162 24.1976C13.306 24.3963 13.6492 24.5026 14.0005 24.5026C14.3519 24.5026 14.6951 24.3963 14.9849 24.1976C19.2828 21.2801 21.1438 19.2796 22.1703 18.0283C22.54 17.5783 22.8868 17.11 23.2094 16.6251H18.375C18.2125 16.6251 18.0533 16.5799 17.9151 16.4945C17.7768 16.4091 17.6651 16.2869 17.5924 16.1416ZM25.375 14.8751H24.2074C23.9165 15.4812 23.583 16.066 23.2094 16.6251H25.375C25.6071 16.6251 25.8296 16.5329 25.9937 16.3688C26.1578 16.2047 26.25 15.9821 26.25 15.7501C26.25 15.518 26.1578 15.2954 25.9937 15.1313C25.8296 14.9672 25.6071 14.8751 25.375 14.8751ZM2.625 13.1251C2.39294 13.1251 2.17038 13.2172 2.00628 13.3813C1.84219 13.5454 1.75 13.768 1.75 14.0001C1.75 14.2321 1.84219 14.4547 2.00628 14.6188C2.17038 14.7829 2.39294 14.8751 2.625 14.8751H3.79258C3.52198 14.3099 3.29492 13.7248 3.11336 13.1251H2.625Z" fill="#F07A24"/>
</svg>
