<svg width="28" height="20" viewBox="0 0 28 20" fill="none" xmlns="http://www.w3.org/2000/svg">
<path d="M26.4193 9.41782C25.2594 4.17383 23.5137 1.37493 20.9243 0.610395C20.38 0.450734 19.8154 0.370969 19.2481 0.373598C18.4984 0.373598 17.8454 0.556254 17.1547 0.749848C16.3223 0.983364 15.3768 1.2486 13.9981 1.2486C12.6194 1.2486 11.6734 0.983911 10.8394 0.750395C10.1481 0.556254 9.4957 0.373598 8.74812 0.373598C8.16155 0.371564 7.57756 0.451075 7.01288 0.609848C4.4371 1.3711 2.69257 4.16891 1.5157 9.41453C0.250228 15.0594 0.873118 18.6234 3.26242 19.4502C3.58993 19.5657 3.93453 19.6252 4.28179 19.6263C5.91859 19.6263 7.23109 18.263 8.12796 17.1468C9.14132 15.8835 10.3275 15.2426 13.9981 15.2426C17.2766 15.2426 18.6334 15.6872 19.8054 17.1468C20.542 18.0645 21.2382 18.7065 21.9327 19.1106C22.8564 19.6477 23.7795 19.7669 24.6759 19.459C26.0879 18.9772 26.8973 17.7035 27.0821 15.6724C27.2227 14.1149 27.0061 12.0691 26.4193 9.41782ZM11.3731 9.1236H9.62312V10.8736C9.62312 11.1057 9.53093 11.3282 9.36684 11.4923C9.20274 11.6564 8.98018 11.7486 8.74812 11.7486C8.51605 11.7486 8.29349 11.6564 8.1294 11.4923C7.96531 11.3282 7.87312 11.1057 7.87312 10.8736V9.1236H6.12312C5.89105 9.1236 5.66849 9.03141 5.5044 8.86732C5.34031 8.70322 5.24812 8.48066 5.24812 8.2486C5.24812 8.01653 5.34031 7.79397 5.5044 7.62988C5.66849 7.46578 5.89105 7.3736 6.12312 7.3736H7.87312V5.6236C7.87312 5.39153 7.96531 5.16897 8.1294 5.00488C8.29349 4.84079 8.51605 4.7486 8.74812 4.7486C8.98018 4.7486 9.20274 4.84079 9.36684 5.00488C9.53093 5.16897 9.62312 5.39153 9.62312 5.6236V7.3736H11.3731C11.6052 7.3736 11.8277 7.46578 11.9918 7.62988C12.1559 7.79397 12.2481 8.01653 12.2481 8.2486C12.2481 8.48066 12.1559 8.70322 11.9918 8.86732C11.8277 9.03141 11.6052 9.1236 11.3731 9.1236ZM15.9669 9.34235C15.7505 9.34235 15.5391 9.2782 15.3592 9.15802C15.1793 9.03783 15.0392 8.86701 14.9564 8.66716C14.8736 8.4673 14.8519 8.24738 14.8941 8.03522C14.9363 7.82305 15.0405 7.62816 15.1935 7.4752C15.3464 7.32224 15.5413 7.21807 15.7535 7.17586C15.9657 7.13366 16.1856 7.15532 16.3854 7.2381C16.5853 7.32089 16.7561 7.46108 16.8763 7.64094C16.9965 7.82081 17.0606 8.03227 17.0606 8.2486C17.0606 8.53868 16.9454 8.81688 16.7403 9.022C16.5352 9.22711 16.2569 9.34235 15.9669 9.34235ZM18.3731 11.7486C18.1567 11.7486 17.9451 11.6844 17.7652 11.5641C17.5853 11.4438 17.4451 11.2728 17.3624 11.0728C17.2797 10.8728 17.2582 10.6527 17.3006 10.4405C17.343 10.2282 17.4475 10.0333 17.6007 9.88048C17.7539 9.72763 17.9491 9.62367 18.1614 9.58178C18.3738 9.53989 18.5938 9.56194 18.7936 9.64514C18.9934 9.72834 19.164 9.86896 19.2839 10.0492C19.4037 10.2294 19.4674 10.4411 19.4669 10.6576C19.4661 10.9472 19.3506 11.2247 19.1456 11.4292C18.9405 11.6337 18.6627 11.7486 18.3731 11.7486ZM18.3731 6.9361C18.1568 6.9361 17.9453 6.87195 17.7655 6.75177C17.5856 6.63159 17.4454 6.46076 17.3626 6.26091C17.2798 6.06105 17.2582 5.84113 17.3004 5.62897C17.3426 5.4168 17.4468 5.22191 17.5997 5.06895C17.7527 4.91599 17.9476 4.81182 18.1597 4.76961C18.3719 4.72741 18.5918 4.74907 18.7917 4.83185C18.9915 4.91464 19.1624 5.05483 19.2825 5.23469C19.4027 5.41456 19.4669 5.62602 19.4669 5.84235C19.4669 6.13243 19.3516 6.41063 19.1465 6.61575C18.9414 6.82086 18.6632 6.9361 18.3731 6.9361ZM20.7794 9.34235C20.563 9.34235 20.3516 9.2782 20.1717 9.15802C19.9918 9.03783 19.8517 8.86701 19.7689 8.66716C19.6861 8.4673 19.6644 8.24738 19.7066 8.03522C19.7488 7.82305 19.853 7.62816 20.006 7.4752C20.1589 7.32224 20.3538 7.21807 20.566 7.17586C20.7782 7.13366 20.9981 7.15532 21.1979 7.2381C21.3978 7.32089 21.5686 7.46108 21.6888 7.64094C21.809 7.82081 21.8731 8.03227 21.8731 8.2486C21.8731 8.53868 21.7579 8.81688 21.5528 9.022C21.3477 9.22711 21.0695 9.34235 20.7794 9.34235Z" fill="#9B2FCD"/>
</svg>
