<svg width="24" height="24" viewBox="0 0 24 24" fill="none" xmlns="http://www.w3.org/2000/svg">
<path d="M12.0007 0.333496C18.4442 0.333496 23.6673 5.55666 23.6673 12.0002C23.6673 18.4437 18.4442 23.6668 12.0007 23.6668C5.55715 23.6668 0.333984 18.4437 0.333984 12.0002C0.333984 5.55666 5.55715 0.333496 12.0007 0.333496ZM16.672 13.0245C16.2695 12.412 15.979 11.971 14.873 12.146C12.7847 12.4773 12.5525 12.8425 12.4533 13.4445L12.4253 13.6265L12.3962 13.8202C12.283 14.617 12.2865 14.918 12.6528 15.3018C14.1287 16.8512 15.013 17.9677 15.2813 18.621C15.412 18.9395 15.748 19.9043 15.517 20.8587C16.9331 20.2946 18.1936 19.3997 19.1932 18.2488C19.3215 17.8125 19.4148 17.2688 19.4148 16.6108V16.4883C19.4148 15.4127 19.4148 14.9215 18.6542 14.4863C18.4097 14.3477 18.1585 14.2212 17.9017 14.1072C17.4735 13.9123 17.19 13.7852 16.8073 13.2252C16.7611 13.159 16.716 13.0921 16.672 13.0245ZM12.0007 2.472C9.29749 2.472 6.85565 3.599 5.12198 5.40733C5.32849 5.55083 5.50815 5.75266 5.63182 6.03033C5.86982 6.5635 5.86982 7.113 5.86982 7.5995C5.86982 7.98216 5.86982 8.34616 5.99232 8.60866C6.16032 8.968 6.88598 9.122 7.52648 9.255C7.75632 9.304 7.99198 9.353 8.20665 9.4125C8.79698 9.57583 9.25432 10.1067 9.61948 10.5325C9.77115 10.7087 9.99632 10.9688 10.1095 11.0342C10.1678 10.9922 10.3557 10.788 10.4478 10.4532C10.5202 10.1965 10.4992 9.97016 10.3953 9.8465C9.74198 9.0765 9.77815 7.59483 9.97998 7.04766C10.2973 6.1855 11.289 6.24966 12.0147 6.29633C12.2853 6.31383 12.5397 6.33133 12.731 6.30683C13.4567 6.21583 13.6807 5.111 13.8382 4.89516C14.1788 4.4285 15.2218 3.725 15.8682 3.291C14.6507 2.74965 13.333 2.47061 12.0007 2.472Z" fill="#4B5CF1"/>
</svg>
