<svg width="18" height="14" viewBox="0 0 18 14" fill="none" xmlns="http://www.w3.org/2000/svg">
<path fill-rule="evenodd" clip-rule="evenodd" d="M16 0.5H2C1.73478 0.5 1.48043 0.605357 1.29289 0.792893C1.10536 0.98043 1 1.23478 1 1.5V12.5C1 12.7652 1.10536 13.0196 1.29289 13.2071C1.48043 13.3946 1.73478 13.5 2 13.5H16C16.2652 13.5 16.5196 13.3946 16.7071 13.2071C16.8946 13.0196 17 12.7652 17 12.5V1.5C17 1.23478 16.8946 0.98043 16.7071 0.792893C16.5196 0.605357 16.2652 0.5 16 0.5ZM3 11.5V2.5H15V11.5H3Z" fill="#111344"/>
<path fill-rule="evenodd" clip-rule="evenodd" d="M16.648 2.261L9.60304 8.261C9.42136 8.41564 9.19038 8.50023 8.9518 8.4995C8.71322 8.49876 8.48276 8.41275 8.30204 8.257L1.34704 2.257C0.645039 1.652 1.07304 0.5 2.00004 0.5H16C16.93 0.5 17.356 1.658 16.648 2.261ZM4.69004 2.5L8.96004 6.183L13.282 2.5H4.69004Z" fill="#111344"/>
</svg>
