<svg width="22" height="22" viewBox="0 0 22 22" fill="none" xmlns="http://www.w3.org/2000/svg">
<path d="M20.9604 14.0356C20.3268 16.3111 19.0571 18.3088 17.3319 19.7444C15.8173 20.9987 14.0149 21.7636 12.127 21.9534C10.2392 22.1432 8.34059 21.7504 6.6444 20.819C4.94822 19.8875 3.52154 18.4544 2.52452 16.6804C1.5275 14.9064 0.999589 12.8618 1.00005 10.7761C0.993232 8.34155 1.71255 5.97181 3.04766 4.03039C4.35246 2.13227 6.16814 0.735281 8.23632 0.0382222C8.37263 -0.00795713 8.5178 -0.0123792 8.65623 0.0254317C8.79465 0.0632427 8.92109 0.141856 9.02194 0.252817C9.12279 0.363778 9.19424 0.502888 9.22861 0.655187C9.26297 0.807486 9.25895 0.967211 9.21698 1.11718C8.76474 2.76307 8.72682 4.51311 9.10727 6.18083C9.48771 7.84855 10.2723 9.37146 11.3773 10.5873C12.4824 11.8031 13.8665 12.6663 15.3823 13.0849C16.8981 13.5035 18.4887 13.4618 19.9846 12.9642C20.1209 12.918 20.2661 12.9136 20.4045 12.9514C20.5429 12.9892 20.6694 13.0678 20.7702 13.1788C20.8711 13.2898 20.9425 13.4289 20.9769 13.5812C21.0113 13.7335 21.0072 13.8932 20.9653 14.0432L20.9604 14.0356Z" fill="white"/>
</svg>
