<svg width="24" height="22" viewBox="0 0 24 22" fill="none" xmlns="http://www.w3.org/2000/svg">
<path d="M23.0827 0.5V15.0833C23.0827 16.1663 22.6525 17.2049 21.8867 17.9707C21.1209 18.7365 20.0823 19.1667 18.9993 19.1667C17.9164 19.1667 16.8778 18.7365 16.112 17.9707C15.3462 17.2049 14.916 16.1663 14.916 15.0833C14.916 14.0004 15.3462 12.9618 16.112 12.196C16.8778 11.4302 17.9164 11 18.9993 11C19.6294 11 20.2243 11.14 20.7493 11.3967V4.54833L9.08268 7.03333V17.4167C9.08268 18.4996 8.65248 19.5382 7.8867 20.304C7.12093 21.0698 6.08232 21.5 4.99935 21.5C3.91638 21.5 2.87777 21.0698 2.112 20.304C1.34622 19.5382 0.916016 18.4996 0.916016 17.4167C0.916016 16.3337 1.34622 15.2951 2.112 14.5293C2.87777 13.7635 3.91638 13.3333 4.99935 13.3333C5.62935 13.3333 6.22435 13.4733 6.74935 13.73V4L23.0827 0.5Z" fill="#309328"/>
</svg>
