<svg width="26" height="20" viewBox="0 0 26 20" fill="none" xmlns="http://www.w3.org/2000/svg">
<path d="M0.5 2.5C0.5 1.125 1.625 0 3 0H23C23.663 0 24.2989 0.263392 24.7678 0.732233C25.2366 1.20107 25.5 1.83696 25.5 2.5V17.5C25.5 18.163 25.2366 18.7989 24.7678 19.2678C24.2989 19.7366 23.663 20 23 20H3C2.33696 20 1.70107 19.7366 1.23223 19.2678C0.763392 18.7989 0.5 18.163 0.5 17.5V2.5ZM8 2.5V17.5H18V2.5H8ZM3 3.75V6.25H5.5V3.75H3ZM3 8.75V11.25H5.5V8.75H3ZM3 13.75V16.25H5.5V13.75H3ZM20.5 3.75V6.25H23V3.75H20.5ZM20.5 8.75V11.25H23V8.75H20.5ZM20.5 13.75V16.25H23V13.75H20.5ZM10.5 6.25L16.75 10L10.5 13.75V6.25Z" fill="#D01616"/>
</svg>
